<?xml version="1.0" encoding="utf-8"?>
<!-- Generator: Adobe Illustrator 27.2.0, SVG Export Plug-In . SVG Version: 6.00 Build 0)  -->
<svg version="1.1" id="Layer_1" xmlns="http://www.w3.org/2000/svg" xmlns:xlink="http://www.w3.org/1999/xlink" x="0px" y="0px"
	 viewBox="0 0 900 900" style="enable-background:new 0 0 900 900;" xml:space="preserve">
<style type="text/css">
	.st0{fill:#ECDCE4;}
	.st1{fill:#EDD8D0;}
	.st2{fill:#B2B1B0;}
	.st3{fill:#B4B3B3;}
	.st4{fill:#AEADAD;}
	.st5{fill:#AAAAAA;}
	.st6{fill:#B0B0B0;}
	.st7{fill:#B2AFAE;}
	.st8{fill:#010101;}
	.st9{fill:#C698AF;}
	.st10{fill:#C98B72;}
	.st11{fill:#2F221C;}
	.st12{fill:#C88B72;}
	.st13{fill:#351F26;}
	.st14{fill:#52453F;}
	.st15{fill:#060404;}
	.st16{fill:#080404;}
	.st17{fill:#020101;}
	.st18{fill:#030202;}
	.st19{fill:#0B0505;}
	.st20{fill:#0E0807;}
	.st21{fill:#2F0101;}
	.st22{fill:#2B1814;}
	.st23{fill:#231513;}
	.st24{fill:#2C1915;}
	.st25{fill:#0E0907;}
	.st26{fill:#190F0D;}
	.st27{fill:#FEFEFE;}
</style>
<g>
	<path class="st0" d="M642.5,900c-128.9,0-257.7,0-386.6,0c-0.1-0.3-0.1-0.6-0.2-0.9c0.4-0.5,0.9-0.8,1.5-1c2.2-0.7,4.5-0.5,6.8-0.5
		c123.5,0,246.9,0,370.4,0c2,0,4-0.1,5.9,0.2c0.6,0.1,1.1,0.3,1.7,0.6C642.6,898.9,642.8,899.4,642.5,900z"/>
	<path class="st1" d="M764,900c-26.8,0-53.6,0-80.4,0c-0.1-0.3-0.1-0.6-0.2-0.9c0.4-0.5,0.9-0.8,1.4-1c1.3-0.4,2.7-0.5,4-0.5
		c23.5,0,46.9,0,70.4,0c0.9,0,1.8,0,2.7,0.2c0.6,0.1,1.1,0.3,1.6,0.6C764.2,898.9,764.3,899.4,764,900z"/>
	<path class="st1" d="M212,900c-25.3,0-50.6,0-75.9,0c-0.1-0.3-0.1-0.6-0.2-0.9c0.4-0.5,0.9-0.8,1.4-1c1.3-0.4,2.7-0.5,4-0.5
		c22,0,43.9,0,65.9,0c0.9,0,1.8,0,2.7,0.2c0.6,0.1,1.1,0.3,1.6,0.6C212.2,898.9,212.3,899.4,212,900z"/>
	<path class="st2" d="M212,900c0-0.3,0.1-0.6,0.1-1c1.4-1.2,2.8-1.2,4.3-0.2c0.1,0.4,0.1,0.8,0.2,1.1C215.1,900,213.6,900,212,900z"
		/>
	<path class="st3" d="M255.8,898.9c0.1,0.4,0.1,0.7,0.2,1.1c-1.5,0-3,0-4.6,0c0.1-0.4,0.1-0.8,0.2-1.2
		C253,897.9,254.4,897.9,255.8,898.9z"/>
	<path class="st4" d="M642.5,900c0-0.3-0.1-0.6,0-0.9c1.4-1.3,2.9-1.3,4.4-0.2c0.1,0.4,0.1,0.7,0.2,1.1C645.5,900,644,900,642.5,900
		z"/>
	<path class="st5" d="M136.2,899.2c0,0.3,0,0.5,0,0.8c-1.2,0-2.4,0-3.7,0c0-0.3,0-0.6,0-0.9C133.8,898.2,135,898,136.2,899.2z"/>
	<path class="st6" d="M683.6,899.2c0,0.3,0,0.5,0,0.8c-1.2,0-2.4,0-3.7,0c0.1-0.4,0.2-0.8,0.2-1.2
		C681.4,898,682.6,898.1,683.6,899.2z"/>
	<path class="st7" d="M764,900c0-0.3,0.1-0.7,0.1-1c0.9-0.7,1.8-0.6,2.6,0.1c0,0.3,0,0.6,0,0.9C765.9,900,765,900,764,900z"/>
	<path class="st8" d="M766.8,899.1c-0.9,0-1.7-0.1-2.6-0.1c0,0,0-0.1,0-0.1c-1.3-1.1-1.4-2.6-1.4-4.2c-1.6-30.2-5-60.3-8-90.4
		c-1.5-15.3-2.1-30.6-3-45.9c-0.8-12-2.1-23.9-3-35.9c-0.7-9.4-1.9-18.8-1.5-28.2c0.4-9.5-0.7-18.8-1-28.3c-0.1-3.9-0.7-4.3-4.4-2.6
		c-11.1,5.1-22.6,9.1-34.1,12.9c-16.2,5.3-32.8,9.4-49.7,11.8c-3.6,0.5-4.2,1.9-3.5,5.1c2.6,11.7,5.8,23.3,8.5,35
		c5.5,23.5,8.8,47.3,12.4,71c1.6,10.6,4.4,20.8,7.1,31.1c3.6,14.1,4.8,28.5,5.1,42.9c0.1,6.9-0.6,14-1.5,20.9
		c-0.2,1.8-0.5,3.7-2.3,4.8c0,0-0.1,0.1-0.1,0.1c-1.2-0.1-2.3-0.2-3.5-0.4c2.3-15.1,2.3-30.3,1.1-45.5c-0.9-11.6-3.6-22.8-6.6-34
		c-4.2-15.6-6.2-31.6-8.4-47.6c-2.9-20.7-6.8-41.3-12.5-61.6c-0.4,0.4-0.9,0.7-0.9,1c-3.1,14.9-7.9,29.3-11.4,44.1
		c-2.4,9.9-4,19.9-4.7,30.1c-0.6,9.1-1.3,18.2-2.4,27.3c-1.8,16.2,0.5,31.8,4.9,47.3c3.3,11.6,6.4,23.2,7.4,35.2
		c0.1,1.2,0.2,2.4,0.3,3.6c-1.5,0.1-3,0.2-4.4,0.2l0,0c-1.5-1.3-2.1-3-2.3-4.8c-1.7-12.9-5.3-25.3-8.4-37.9
		c-2-8.2-3.1-16.4-4.1-24.8c-0.6-5.2,0.3-10.3,0.8-15.5c2.2-22.7,2.8-45.6,9.2-67.7c4-13.6,7.9-27.2,11.4-40.9
		c1.1-4.1,1.1-8,0.2-12.1c-4.9-21.2-8.1-42.8-10.6-64.4c-0.2-1.4-0.2-2.7-0.1-4.1c0.2-1.5,0-3.2,1.8-4c2.6,1.1,2.5,3.7,2.8,5.8
		c2.3,12.9,3.7,25.9,6.1,38.8c0.7,3.7,1.6,7.5,2.1,11.2c0.5,3.2,2.1,3.8,5.1,3.3c17.8-2.8,35.2-7,52.3-12.8
		c10.7-3.6,21.5-6.9,31.9-11.3c5.1-2.2,5.4-2.6,4.6-8.2c-1.6-11-4.5-21.8-6.9-32.6c-3.4-15.3-4.6-31-7.5-46.4
		c-4.4-23-11.4-45.2-23.8-65.3c-12.2-19.9-29.7-34.1-50.2-44.7c-17.1-8.8-35.4-14.9-52.9-22.7c-19.3-8.7-38.8-16.9-57.2-27.4
		c-2.7-1.6-5.2-3.5-9-5.6c0.9,8.2-1.6,14.6-4.9,20.9c-7.9,15.4-20,26.2-35.8,33c-25.8,11.2-52.1,11.2-78.5,2.5
		c-12.6-4.1-25.4-7.6-36.7-14.9c-11.4-7.3-21.2-16.3-27.4-28.8c-1.1-2.2-2.1-4.4-2.5-6.8c-0.3-2.2-1.2-3.1-3.3-1.7
		c-14.6,9.6-31.8,14.1-46.7,22.8c-23.5,13.7-48.7,23.8-73.4,34.8c-25.9,11.5-43.5,30.4-53.4,57c-12.6,33.6-23,67.8-27.2,103.6
		c-1.2,10.4-2.3,20.9-0.5,31.4c0.3,1.8,0.4,3.7,0,5.5c-0.9,3.8,1,4.8,4.3,5.2c5.3,0.5,10.5,1.8,15.5,3.6c14.8,5.2,30,9.1,44.4,15.4
		c7.7,3.3,14.8,7.7,22.3,11.5c4.5,2.3,4.4,2.5,5.9-2.6c2.4-8,3.8-16.3,5.6-24.5c0.5-2.3,0.7-6,3.5-5.6c3,0.5,1.5,4,1.3,6.2
		c-1.1,10.5-3.8,20.7-6.4,30.8c-0.9,3.6-1.1,7.1-0.5,10.8c3,16.5,5,33.1,7.2,49.7c0.7,5,0.6,10,0.9,15c0.5,7.4,1.2,14.9,1.1,22.3
		c-0.4,19.4,1.5,38.6,5,57.7c2,11,2.1,22.1,0.2,33.2c-0.3,2-0.1,4.3-1.9,5.9c0,0,0,0,0,0c-1.4,0.2-2.8,0.3-4.2-0.1
		c2.4-14.9,2.2-29.7-0.5-44.5c-2.4-12.7-3.5-25.6-3.5-38.6c0-18.6-0.8-37.1-2.6-55.6c-1.3-12.6-3.1-25-4.7-37.6
		c-0.2-1.2-0.6-2.4-1-4.3c-1.8,5.5-2.6,10.4-3.2,15.4c-0.8,6-1.5,12.1-1.6,18.2c-0.3,15-3,29.6-6.3,44.2c-4,17.8-6.4,35.9-7.9,54.1
		c-1,12-2.2,23.9-3.2,35.9c-0.4,4.2-0.4,8.5-0.6,12.8c-1.4,0.1-2.9,0.1-4.3,0.2c0,0,0-0.1,0-0.1c-2.4-3.1-1.5-6.8-1.2-10.1
		c0.9-8.8,1.5-17.6,2.5-26.4c1.5-13.3,2.7-26.6,4.3-39.9c1.8-15,6.2-29.5,9-44.3c2-10.7,2.3-21.5,3-32.2c0.6-10.1,2.1-20,4.8-29.7
		c1.8-6.4,1.4-7.1-4.4-10.5c-14.4-8.4-29.6-15.1-45.5-19.9c-10.3-3.2-20.3-7.4-30.9-9.9c-7.1-1.6-7.4-1.1-8,6
		c-1.4,15.1-0.3,30.1-0.9,45.2c-0.8,21.1-0.8,42.3-2.6,63.4c-0.7,8.2,0.6,16.4,1.1,24.6c1.1,17.5,1,35-1.9,52.3
		c-1.5,8.6-3,17.1-3,25.8c0,2.2-0.3,4.3-2.1,5.8c0,0-0.1,0.1-0.1,0.1c-1.2,0-2.4-0.1-3.7-0.1c-0.5-8.9,0.6-17.7,2.2-26.3
		c3.6-19.8,4.4-39.6,2.6-59.6c-1.1-11.9-0.6-23.7,0-35.6c0.5-9.4,1.1-18.9,1.3-28.3c0.4-17.2,1.4-34.4,0.9-51.6
		c-0.2-8.2,0.5-16.4,1.6-24.6c0.6-5,0.9-10,0.6-15c-1.3-23.6,2.3-46.7,8-69.6c5.9-23.8,13.2-47.1,22.1-69.9
		c10-25.6,27.8-43.6,52.7-54.7c9.9-4.4,19.6-8.9,29.6-13.1c13.5-5.7,26.6-12,39.4-19.1c9.2-5.1,18.6-9.6,28.5-13.3
		c9.4-3.5,18.2-8.4,26.7-13.7c6.6-4.1,10.3-10.5,10.5-18.2c0.4-11.5,1.4-23.1,0.3-34.7c-0.3-3.3-0.4-6.7-1.1-10
		c-1.4-7.6-1.4-15.5-2.7-23.1c-1.8-10.2-5.8-19.8-9.2-29.6c-0.5-1.4-1.3-1.4-2.5-1.3c-4.9,0.2-8.3-2.4-11.2-6
		c-1.6-2-3.1-4.3-3.8-6.7c-2.4-8.5-5.6-16.7-6.7-25.5c-0.9-7.6-1.2-15.2-0.6-22.8c0.1-1.5,0.3-3,0.7-4.5c1.1-4.3,2.3-5.3,7.3-5.5
		c-1.8-6.5-3.3-13-4.3-19.5c-2.6-15.7-2.4-31.5-1.1-47.4c1.4-16.6,6.5-32.1,15-46.5c9.7-16.6,23.5-29,40.1-38.4
		c11.8-6.7,24.9-7.6,38.1-6.3c11.4,1.2,22.5,3.8,33.5,6.8c13.1,3.5,26.4,5.9,39.7,8.3c15.4,2.8,25.6,11.8,31.6,26.1
		c1.7,4,2.3,8.2,2.8,12.4c0.5,3.8,2.1,6.8,5.2,9.3c8.9,7,12.8,16.5,12.7,27.6c-0.1,12.3,0.4,24.6,1.4,36.9
		c0.6,7.7-0.7,15.2-2.8,22.5c-0.6,2-0.4,2.7,1.8,3.5c2.7,0.9,3.9,3.7,4.9,6.3c1.7,4.7,1.5,9.6,0.7,14.5c-1.6,9.8-3.9,19.4-6.9,28.8
		c-1.5,4.6-2.8,9.3-3.8,14.1c-0.1,0.7-0.4,1.5-0.6,2.2c-1.9,6.9-4.3,8.8-11.6,9.1c-1.1,0.7-0.7,1.9-0.8,2.9
		c-0.5,6.3-2.2,12.2-4.2,18.2c-4.4,13.1-6,26.6-5,40.5c0.6,8.7,1.1,17.3,3,25.8c1.6,7.4,5.2,13.5,10.7,18.7
		c9.4,8.7,20.2,15.1,31.6,20.6c26.9,13.1,54.5,24.7,82.4,35.7c20.2,7.9,38.2,19.4,53.3,35.1c13.4,13.8,22.1,30.4,28.6,48.3
		c6.4,17.5,10.4,35.6,12.6,54.1c1.9,16,5.3,31.8,8.9,47.5c2.7,11.8,4.3,23.6,4.2,35.7c-0.1,14.2-0.1,28.3,1,42.5
		c1.3,16.2,2.7,32.4,4,48.7c0.5,6.1,0.9,12.1,1.1,18.2c0.7,16.4,2.6,32.8,4.2,49.1c1,10.4,2.1,20.9,3.1,31.3
		c0.8,8.2,1.6,16.4,2.4,24.5C767.7,889.4,767.8,894.3,766.8,899.1z"/>
	<path class="st9" d="M255.8,898.9c0.3-2.9,0.5-5.8,1-8.6c2.5-13.6,0-27-2.2-40.4c-1.7-10.1-3.1-20.2-3.2-30.4
		c-0.1-16.8-0.9-33.5-1.9-50.2c-0.5-8.5-2-16.9-3.1-25.4c-1.4-10.7-2.9-21.4-4.9-32c-0.3-1.8,0-3.6,0.5-5.4
		c2.9-11.2,5.6-22.4,7.1-33.9c0.2-1.7,0.7-3.5,0.2-5.6c-2,1.3-2.2,3.2-2.5,4.9c-2,9.4-3.8,18.8-6.4,28c-0.4,1.4-0.9,2.8-1.4,4.7
		c-4.2-3-8.6-5.1-12.8-7.5c-12.1-6.9-24.9-12-38.2-16c-9.5-2.8-18.6-6.7-28.3-9c-3.7-0.9-7.5-1.5-11.2-2c-2.2-0.3-3.2-1.2-2.8-3.6
		c0.7-4.4,0.1-8.8-0.1-13.2c-0.8-17.9,1.6-35.6,5.2-53c5.8-27.8,14.1-54.8,24.7-81c6-14.9,14.5-28.1,27.2-38.3
		c6.6-5.3,13.6-9.8,21.2-13.3c10.8-5,21.6-9.9,32.5-14.6c13.4-5.8,26.6-12,39.3-19.4c8.3-4.8,16.9-9,25.9-12.3
		c9.6-3.6,18.5-8.5,27.2-13.8c1-0.6,1.8-1.7,3.2-1.6c1.8,13.4,9.8,22.9,19.3,31.4c8.1,7.1,17.2,12.4,27.5,15.9
		c11.5,3.9,22.7,8.9,34.7,11c25,4.5,49.1,1.9,71.5-11c14.5-8.3,24.1-20.7,30.1-36.1c1.3-3.3,1.7-6.8,1.5-10.3
		c-0.1-1.3-0.2-2.6-0.2-3.8c1.3-0.5,1.8,0.3,2.3,0.7c7.8,5.9,16.5,10.4,25.3,14.6c25.3,12.1,50.9,23.2,76.9,33.7
		c16.7,6.7,32,15.5,45.6,27.4c14.2,12.4,24.4,27.5,31.6,44.7c7.9,18.9,13.3,38.5,15.8,58.9c2.3,18.6,6,36.9,10.3,55.1
		c1.2,4.9,2.1,9.8,2.5,14.8c0.3,3.5,0.3,3.5-3,4.9c-19.5,8.2-39.7,14.5-60.1,19.9c-10,2.7-20.3,3.8-30.4,6.1c-2,0.5-2.3-0.5-2.6-2
		c-2.1-10.3-3.9-20.6-5.5-31c-1.4-9.3-2.2-18.7-4.6-27.9c-2.4,0.7-0.9,2.5-1,3.8c2.1,19.6,4.7,39.2,8.9,58.5
		c0.5,2.4,0.7,4.9,1.5,7.1c2.5,6.7,1.3,13.1-0.7,19.6c-3.4,11.3-6.4,22.8-9.7,34.2c-4.6,15.7-6.9,31.7-8,48
		c-0.5,7.4-1.1,14.9-2,22.2c-1.6,13.4,0.3,26.4,3.4,39.3c2.4,10.2,5.4,20.3,7.2,30.6c0.7,4.2,1.5,8.4,2.2,12.6
		c-96.9,0-193.9,0-290.8,0c-30,0-60,0-89.9,0C259.7,899.1,257.7,899,255.8,898.9z"/>
	<path class="st10" d="M683.8,899.1c2.3-11.1,2.5-22.3,2.2-33.6c-0.5-15.6-3.4-30.8-7.5-45.8c-4.2-15.2-6.1-30.7-8.3-46.2
		c-2.8-19.4-6.7-38.6-11.6-57.7c-2.4-9.3-4.7-18.6-6.6-28.3c16.7-1.6,32.6-5.5,48.5-10.2c15.9-4.7,31.4-10.4,46.6-17.8
		c0.8,1.9,0.6,3.6,0.6,5.1c0.3,11.1,0.5,22.2,0.8,33.3c0.3,14.3,1.9,28.5,3.1,42.8c0.9,11.1,1.9,22.1,2.5,33.2
		c0.9,16.9,2.3,33.7,4.2,50.5c1.2,10.6,2,21.2,3,31.8c0.8,9.1,1.8,18.2,2.5,27.3c0.4,5.2,0.3,10.3,0.5,15.5
		c-9.2,0-18.5,0.1-27.7,0.1C718.9,899.1,701.3,899.1,683.8,899.1z"/>
	<path class="st10" d="M136.3,899.1c1-8.9,1.1-17.9,2.8-26.8c3.3-16.5,4-33.2,3.3-50c-0.1-3.8-0.5-7.6-0.9-11.4
		c-1.5-15.4,0.3-30.7,0.6-46.1c0.5-21,1.9-42,1.4-63c-0.2-7.5,0.2-14.9,0.9-22.3c0.1-1.4,0.4-2.7,0.5-4.1c0.1-2.1,1.2-2.4,3-2.1
		c5.4,1.1,10.7,2.2,15.9,3.9c9.6,3.3,19.3,6.7,28.9,9.8c14.7,4.8,28.4,11.7,41.5,19.7c3.4,2.1,3.5,2.3,2.3,6.1
		c-3.9,12.9-5.8,26.1-6.1,39.6c-0.3,16-3.4,31.4-7.2,46.8c-3.7,14.8-5.3,29.9-6.9,45c-1.5,14.5-2.8,29.1-4.3,43.6
		c-0.4,3.6-0.3,7.3-0.2,10.9c-20.2,0-40.5,0.1-60.7,0.1C146.4,899.1,141.4,899.1,136.3,899.1z"/>
	<path class="st10" d="M526.4,233.4c0,7.9,0,13.9,0,19.8c0,3.9-1.2,7.5-1.7,11.2c-0.9,7.5-2.2,15.1-2.6,22.7
		c-0.5,10-3.7,19-8.3,27.7c-9.6,18.4-21.4,35.1-38,47.9c-6.4,4.9-13.2,9.2-20.8,12.2c-15,6-29.2,4-42.8-4.3c-4.3-2.6-8-6.1-11.6-9.6
		c-11.8-11.5-22.5-23.9-32.7-36.9c-1.1-1.4-2.2-3-3.5-4.2c-5.8-5.4-8.8-12.2-10.8-19.7c-0.1-0.3-0.1-0.6-0.2-0.9
		c-5.3-11.8-6.3-24.3-6.9-37c-0.2-3.4-0.5-6.7-1.2-10c-0.2-1-0.5-2-0.3-3.1c2.1-13.5,4-27.1,6.2-40.6c1.3-7.9,4.7-15.1,8.9-21.8
		c4.9-7.8,8.7-16,10.4-25.1c0.6-3.1,1-6.3,1.5-9.4c1.5-8.4,6.1-12.3,14.7-12.6c4.2-0.1,8.2,1,12,2.3c8.8,3,17.8,3.8,27,3.3
		c8.2-0.4,15.9-2.2,23.4-5.6c1.8-0.8,3.7-1.5,5.3-2.6c9-5.8,18.5-5.7,28.6-3.5c8.6,1.9,15.5,6,20.8,12.9c1.6,2,3.2,4.1,4.7,6.2
		c4.7,6.2,6.9,13.2,6.7,20.9c-0.1,6,0.6,11.9,3.3,17.3C525.6,205.1,528,219.9,526.4,233.4z"/>
	<path class="st11" d="M529.7,242.7c-0.4-4.3-0.6-8.6,0.1-13.1c0.6-4.1,0.7-8.5-0.3-12.7c-0.7-2.9-0.4-6-1.2-9
		c-1.3-5-3-9.8-5.1-14.6c-2.5-5.6-4.2-11.3-4.2-17.6c0.1-3.9,0-8.1-1.2-11.7c-4.1-12.8-11.7-23.2-23.6-30c-5-2.9-10.6-3.4-16.1-4.5
		c-4.3-0.8-8.6-1.3-13.1-0.1c-1.9,0.5-3.8,1.2-5.5,2c-6.4,3.2-12.8,6.3-19.6,8.5c-9.3,2.9-18.8,2.9-28.4,1.7
		c-4.7-0.6-9.2-2.1-13.7-3.4c-6-1.7-11.9-2.3-17.9-0.6c-6.2,1.8-9.6,6.1-10.7,12.3c-0.8,4.5-1.5,9-2.3,13.4
		c-1.8,9.1-6.4,17-11.2,24.8c-4,6.6-6.4,13.7-7.5,21.3c-1.4,9.9-2.8,19.8-3.7,29.7c-0.1,1.3-0.7,2.5-1.2,4.2
		c-3.2-4.1-5.3-8-6.3-12.8c-1.7-8.3-4.4-16.4-6.4-24.6c-2.2-9-3.7-18.1-3.5-27.4c0.1-6.2,0-12.5,0-18.7c0.1-25.1,8.2-47.5,23.7-66.9
		c8.2-10.3,18.5-18.5,30.1-24.8c7.4-4.1,15.5-5.8,24-6.1c15.7-0.6,30.7,3.2,45.6,7.2c8.6,2.3,17.4,4,26.2,5.7
		c8.4,1.6,17.2,2.2,25,6.3c10.3,5.5,16.3,14.3,19,25.4c0.6,2.3,1,4.7,1.1,7.2c0.2,3.2,1.4,6.2,3.9,8.5c1.9,1.7,3.7,3.6,5.5,5.5
		c4.7,4.7,6.9,10.5,7.8,17c0.8,5.7,0.5,11.4,0.3,17.2c-0.2,4.7,0.1,9.7,0.7,14.5c1.4,10.8,1.1,21.4-1.8,32
		c-3.1,11.1-5.6,22.3-8.4,33.5C530,242.2,529.9,242.5,529.7,242.7z"/>
	<path class="st10" d="M512.9,326.1c-1.9,15.9-0.7,31.6,1.8,47.3c1.5,9.4,5.3,17.6,13.3,23.6c4.4,3.3,4.9,8.5,4.5,13.7
		c-0.2,2.6-1,5.1-2,7.5c-5.5,14-14.6,24.9-27.9,32c-17.1,9.1-35.3,12.7-54.6,11.6c-15.8-0.9-30.3-6.4-45-11.3
		c-11-3.7-21-8.9-29.8-16.5c-6.3-5.4-11.3-11.9-15.3-19.2c-0.9-1.7-1.7-3.6-2.1-5.5c-0.7-3-0.6-5.9,1.8-8.5c3.6-4,5.1-9.1,5.1-14.3
		c0-10.5,1-21,0.4-31.5c-0.4-7.3-1.6-14.5-2.5-21.7c-0.6-4.5-0.9-8.9-0.7-13.7c1.3,1.6,2.6,3.2,3.9,4.9
		c10.9,13.9,22.2,27.5,34.9,39.8c7.1,6.8,14.8,12.5,24.5,15.4c12.7,3.7,24.9,3.2,36.8-2.9c19.6-10,35.3-24.2,46.8-43
		c1.8-3,3.4-6.1,5.1-9.2C513.6,324.3,513.2,325.3,512.9,326.1z"/>
	<path class="st10" d="M324.5,233.5c0-3,0-6.1,0.7-9.1c0.4-1.9,0.3-4.2,2.8-4.6c1.7-0.3,3.2,1.5,3.9,4.3c0.7,2.6,1.2,5.3,1.8,8
		c0.7,3.1,1.4,6.3,3.4,8.9c4.3,5.7,5.9,12.3,6.3,19.2c0.4,6.8,1,13.6,1.9,20.4c0.5,4-0.9,5-4.6,3.6c-2.2-0.8-3.9-2.4-5.3-4.2
		c-1.7-2.2-2.9-4.6-3.8-7.2C327,259.9,324.6,247,324.5,233.5z"/>
	<path class="st12" d="M546.6,228.9c-0.7,8.3-2.9,17.9-5.8,27.3c-2.1,6.8-4.6,13.5-6.3,20.4c-0.4,1.6-0.9,3.2-1.9,4.6
		c-1,1.3-2.2,2.1-3.8,2.2c-2.4,0.2-3.2-0.4-3-3.1c0.2-3.2,0.6-6.3,1-9.5c0.2-2.1,0.6-4.2,0.8-6.3c0.4-4.5,1.9-8.7,3.3-13
		c2.4-7.3,3.8-15,5.7-22.5c0.8-3.4,1.7-6.8,2.5-10.2c0.2-0.9,0.4-1.8,0.8-2.6c1.1-2,2.5-2.1,3.8-0.2
		C546.1,219.4,546.7,223.3,546.6,228.9z"/>
	<path class="st13" d="M639.6,627c-1-1.3-0.7-2.9-0.8-4.4c0-0.7,0.3-1.2,1.1-1c0.7,0.2,0.7,0.9,0.7,1.5
		C639.2,624.2,640.1,625.8,639.6,627z"/>
	<path class="st14" d="M512.9,326.1c-0.3-0.6-0.2-1.3-0.9-1.7c0.3-0.8,0.6-1.6,1.2-3C513.9,323.6,513.9,324.9,512.9,326.1z"/>
	<path class="st11" d="M529.5,245.3c-0.1,0-0.2,0.1-0.3,0.1c-0.3-0.1-0.4-0.3-0.1-0.5c0.1,0,0.3,0,0.3,0.1
		C529.4,245.1,529.4,245.2,529.5,245.3z"/>
	<path class="st15" d="M417.7,305.1c19.7-1.9,39.3-3.5,59.1-3.6c1.4,0,2.8-0.1,4.1,0.1c2.5,0.4,3.1,1.8,1.8,3.8
		c-0.7,1-1.5,1.9-2.4,2.7c-7.7,7.5-17.2,11.3-27.5,13.3c-14.3,2.8-28.1,0.8-41.3-5.4c-5.6-2.7-11.2-5.5-16.4-8.9
		c-0.6-0.4-1.4-0.6-1.6-1.9c1.6-0.9,3.3-0.3,5-0.1C404.9,305.9,411.3,305.8,417.7,305.1z"/>
	<path class="st16" d="M368.1,225.3c7-8.2,16.3-11.9,26.6-13.4c5.1-0.7,10.3-1.2,15.4-0.1c4,0.9,7.7,2.2,10.3,5.8
		c-1.9,1.1-3.3,0.3-4.7-0.2c-15.8-5.9-30-2.5-43.3,7.2c-1,0.7-2,1.4-3,2.1C368.4,226.9,367.9,226.4,368.1,225.3z"/>
	<path class="st17" d="M475,237.1c-3.6,0.1-7.1-3.2-7.3-6.7c-0.2-4.2,3.5-7.7,8.3-7.7c3.9-0.1,6.5,2.5,6.6,6.5
		C482.6,233.5,479.3,237,475,237.1z"/>
	<path class="st18" d="M394.7,231.6c0-4.5,3.3-7.9,7.7-7.8c3.3,0.1,6.8,3.5,6.8,6.8c0.1,3.9-4,7.8-8,7.8
		C397.5,238.3,394.7,235.4,394.7,231.6z"/>
	<path class="st19" d="M497.9,212.9c-4.3-1.1-8.4-2.6-12.9-2.8c-8.6-0.3-16.5,1.9-24,6.2c-2.2,1.2-4.2,2.8-7.3,3
		c8.6-11.6,30-16.3,46.1-7.5C500,213.5,498.9,213.2,497.9,212.9z"/>
	<path class="st20" d="M444,243.8c1.5,8,3.3,16.1,4.6,24.2c0.9,5.8-0.3,11.2-3.9,15.9c-0.7,0.9-1.3,2.1-2.9,2.3
		c-1.1-1.5-0.2-2.8,0.6-4c4-5.5,4.2-11.4,3-17.8c-1-5.2-2-10.4-2.3-15.8c-0.6-1.2,0.1-2.7-0.7-3.9c-0.3-1.2-0.5-2.4-0.2-3.7
		c0.3-0.2,0.6-0.2,1,0c0.2,0.2,0.2,0.4,0.2,0.6C443.7,242.4,443.6,243.2,444,243.8z"/>
	<path class="st21" d="M417.7,305.1c-0.5,0.6-1.2,0.8-2,0.8c-5.1,0-10.2,0-15.3,0c-0.8,0-1.5-0.3-2-0.9
		C404.9,305.1,411.3,305.1,417.7,305.1z"/>
	<path class="st22" d="M497.9,212.9c0.8-0.2,1.6-0.2,2-1.1c2.4,0.8,5,1.3,6.7,4.9C503.1,215.4,500.4,214.5,497.9,212.9z"/>
	<path class="st23" d="M368.1,225.3c0.4,0.5,0.9,0.9,1.3,1.4c-1,1.7-2.7,2.5-4.4,3.4C365.1,227.8,366.6,226.5,368.1,225.3z"/>
	<path class="st24" d="M442.5,244.8c1.2,1.1,0.8,2.5,0.7,3.9C442.4,247.5,442.2,246.2,442.5,244.8z"/>
	<path class="st24" d="M444,243.8c-0.8-0.5-0.8-1.3-0.6-2.1C444,242.3,444.2,243,444,243.8z"/>
	<path class="st24" d="M443.2,241.1c-0.3,0-0.6,0-1,0c0.1-0.2,0.2-0.6,0.3-0.6C443.1,240.3,443.2,240.7,443.2,241.1z"/>
	<path class="st25" d="M334.9,242.4c2.7,7.3,2,14.2,5.9,20.5c-3.2,0.4-4-1.4-4.7-2.9C333.8,254.7,332.9,249.2,334.9,242.4z"/>
	<path class="st26" d="M535.3,253.2c0,2.6-0.8,4.7-1.6,6.7c-0.3,0.7-0.7,1.4-1.7,1.1c-0.9-0.3-1.1-1.1-0.8-1.8
		C532.2,257.1,532.5,254.5,535.3,253.2z"/>
	<path class="st27" d="M480.9,303.8c-4.4,5.1-9,8.2-14.3,10.4c-16.7,7-33.4,6.9-50.1,0.1c-5-2-10.1-4-14.9-7
		C427.9,307.8,453.8,303.3,480.9,303.8z"/>
</g>
</svg>
