<?xml version="1.0" encoding="UTF-8"?>
<svg id="Layer_2" data-name="Layer 2" xmlns="http://www.w3.org/2000/svg" viewBox="0 0 368.63 75.54">
  <defs>
    <style>
      .cls-1 {
        fill: #022238;
      }

      .cls-2 {
        fill: #843667;
      }
    </style>
  </defs>
  <g id="Layer_1-2" data-name="Layer 1">
    <g>
      <g>
        <path class="cls-2" d="m64.53,21.33c-.37-.65-.76-1.29-1.18-1.9-4.11-.13-4.9,2.28-7.69,7.14,7.26,13.85.91,33.28-15.48,36.31-2.06,3.91-3.97,6.98-6.6,10.09,28.65,1.14,43.46-27.63,30.94-51.64Z"/>
        <path class="cls-2" d="m13.68,51.99c-8-14.07-1.1-34.35,15.91-36.96,1.9-3.94,3.72-7.1,5.79-9.98-.28-.01-.56-.01-.84-.01C7.09,4.55-7.44,31.86,3.85,55.45c4.45,1.57,7.53.55,9.83-3.45Z"/>
        <path class="cls-2" d="m46.06,27.75c3.57-8.72,8.78-18.37,19.29-16.37V.6c-17.26-3.68-25.5,10.15-31.14,24.34,0,0-9.27,22.74-9.27,22.74-3.85,10.22-9.99,18.96-21.33,16.27v10.78c18.45,4.18,26.97-8.53,33.19-24.24,0,0,9.26-22.74,9.26-22.74Z"/>
      </g>
      <g>
        <g>
          <path class="cls-1" d="m85.39,38.54c-1.55-2.69-2.32-5.78-2.32-9.27s.77-6.61,2.32-9.29c1.54-2.68,3.69-4.78,6.43-6.31,2.74-1.53,5.91-2.29,9.49-2.29s6.75.76,9.49,2.29c2.74,1.53,4.89,3.63,6.43,6.31s2.32,5.78,2.32,9.29-.77,6.57-2.32,9.27-3.69,4.81-6.43,6.34c-2.74,1.53-5.91,2.29-9.49,2.29s-6.75-.76-9.49-2.29c-2.74-1.53-4.89-3.64-6.43-6.34Zm25.91-3.25c.97-1.74,1.45-3.75,1.45-6.01s-.49-4.31-1.45-6.04c-.97-1.73-2.31-3.08-4.02-4.07-1.71-.99-3.7-1.48-5.97-1.48s-4.22.49-5.94,1.48c-1.73.99-3.07,2.34-4.04,4.07-.97,1.73-1.45,3.74-1.45,6.04s.48,4.27,1.45,6.01c.97,1.74,2.32,3.11,4.04,4.09,1.73.99,3.71,1.48,5.94,1.48s4.26-.49,5.97-1.48c1.71-.99,3.05-2.35,4.02-4.09Z"/>
          <path class="cls-1" d="m130.7,37.16c0,1.22.28,2.15.84,2.81.56.66,1.35.99,2.37.99s1.81-.33,2.37-.99c.56-.66.84-1.59.84-2.81v-14.05h6.41v13.95c0,3.22-.83,5.7-2.49,7.45-1.66,1.74-4.04,2.61-7.12,2.61s-5.47-.87-7.12-2.61c-1.66-1.74-2.49-4.22-2.49-7.45v-13.95h6.41v14.05Z"/>
          <path class="cls-1" d="m148.84,23.11h6.21v2.71c1.22-2,3.53-3.01,6.95-3.01h.25v6.36h-.39c-1.68,0-3.1.23-4.26.69-1.17.46-1.95,1.1-2.34,1.92v14.5h-6.41v-23.17Z"/>
          <path class="cls-1" d="m176.06,23.85c1.18-2.92,2.39-5.25,3.62-6.98,1.23-1.73,2.6-2.97,4.09-3.72,1.5-.76,3.23-1.13,5.2-1.13.99,0,1.78.08,2.37.25v6.16c-.13-.03-.3-.06-.52-.07-.21-.02-.42-.02-.62-.02-1.61,0-2.98.54-4.12,1.63-1.13,1.08-2.24,2.94-3.33,5.57l-3.8,9.32c-1.18,2.89-2.38,5.19-3.6,6.9-1.22,1.71-2.56,2.93-4.04,3.67-1.48.74-3.24,1.11-5.28,1.11-.56,0-1.1-.03-1.63-.1-.53-.07-.99-.15-1.38-.25v-6.16c.46.13,1.04.2,1.73.2,1.68,0,3.09-.53,4.24-1.6,1.15-1.07,2.23-2.88,3.25-5.45l3.8-9.32Z"/>
          <path class="cls-1" d="m201.55,46.28h-6.41v-17.65h-3.21v-5.52h3.21v-4.88l6.01-3.11h.39v7.99h3.6v5.52h-3.6v17.65Z"/>
          <path class="cls-1" d="m219.84,47.07c-2.43,0-4.6-.53-6.51-1.6-1.91-1.07-3.41-2.54-4.51-4.41-1.1-1.87-1.65-3.99-1.65-6.36s.55-4.53,1.65-6.38c1.1-1.86,2.6-3.32,4.51-4.39,1.91-1.07,4.08-1.6,6.51-1.6s4.6.53,6.51,1.6c1.91,1.07,3.41,2.53,4.51,4.39,1.1,1.86,1.65,3.99,1.65,6.38s-.55,4.49-1.65,6.36c-1.1,1.87-2.61,3.35-4.51,4.41-1.91,1.07-4.08,1.6-6.51,1.6Zm4.39-16.81c-1.18-1.18-2.65-1.78-4.39-1.78s-3.2.59-4.39,1.78c-1.18,1.18-1.78,2.66-1.78,4.44s.59,3.25,1.78,4.44c1.18,1.18,2.65,1.78,4.39,1.78s3.2-.59,4.39-1.78c1.18-1.18,1.77-2.66,1.77-4.44s-.59-3.25-1.77-4.44Z"/>
          <path class="cls-1" d="m236.7,23.11h6.21v2.71c1.22-2,3.53-3.01,6.95-3.01h.25v6.36h-.39c-1.68,0-3.1.23-4.26.69-1.17.46-1.95,1.1-2.34,1.92v14.5h-6.41v-23.17Z"/>
          <path class="cls-1" d="m266.77,47.07c-2.96,0-5.52-.52-7.69-1.55s-3.84-2.51-5-4.41c-1.17-1.91-1.75-4.17-1.75-6.8,0-2.33.5-4.4,1.5-6.19,1-1.79,2.38-3.2,4.14-4.24,1.76-1.04,3.77-1.55,6.04-1.55,2.04,0,3.86.46,5.47,1.38,1.61.92,2.88,2.19,3.8,3.8.92,1.61,1.38,3.44,1.38,5.47,0,.43,0,.91-.02,1.45-.02.54-.06.93-.12,1.16l-15.28,2.32c1.08,2.33,3.65,3.5,7.69,3.5.95,0,1.97-.09,3.06-.27,1.08-.18,2-.42,2.76-.71v5.67c-.53.26-1.39.49-2.59.69-1.2.2-2.33.3-3.38.3Zm-2.81-19.08c-1.45,0-2.63.44-3.55,1.31-.92.87-1.48,2.05-1.68,3.52l9.47-1.48c-.2-1.02-.67-1.83-1.4-2.44s-1.68-.91-2.83-.91Z"/>
          <path class="cls-1" d="m278.21,45.64c-.79-.79-1.18-1.76-1.18-2.91s.39-2.12,1.18-2.91c.79-.79,1.78-1.18,2.96-1.18s2.17.39,2.96,1.18c.79.79,1.18,1.76,1.18,2.91s-.39,2.12-1.18,2.91c-.79.79-1.77,1.18-2.96,1.18s-2.17-.4-2.96-1.18Z"/>
          <path class="cls-1" d="m304.59,29.22c-.82-.2-1.68-.3-2.56-.3-2.2,0-3.96.52-5.28,1.55-1.31,1.04-1.97,2.41-1.97,4.12,0,1.81.63,3.24,1.9,4.29,1.26,1.05,2.98,1.58,5.15,1.58,1.12,0,2.07-.11,2.86-.35v6.11c-.43.13-.95.23-1.58.3-.62.06-1.23.1-1.82.1-2.63,0-4.94-.5-6.93-1.5-1.99-1-3.53-2.41-4.63-4.22-1.1-1.81-1.65-3.91-1.65-6.31s.56-4.44,1.68-6.21c1.12-1.77,2.67-3.15,4.66-4.14,1.99-.99,4.31-1.48,6.98-1.48.56,0,1.13.03,1.7.1.57.07,1.08.15,1.5.25v6.11Z"/>
          <path class="cls-1" d="m320.22,47.07c-2.43,0-4.6-.53-6.51-1.6-1.91-1.07-3.41-2.54-4.51-4.41-1.1-1.87-1.65-3.99-1.65-6.36s.55-4.53,1.65-6.38c1.1-1.86,2.6-3.32,4.51-4.39,1.91-1.07,4.08-1.6,6.51-1.6s4.6.53,6.51,1.6c1.91,1.07,3.41,2.53,4.51,4.39,1.1,1.86,1.65,3.99,1.65,6.38s-.55,4.49-1.65,6.36c-1.1,1.87-2.61,3.35-4.51,4.41-1.91,1.07-4.08,1.6-6.51,1.6Zm4.39-16.81c-1.18-1.18-2.65-1.78-4.39-1.78s-3.2.59-4.39,1.78c-1.18,1.18-1.78,2.66-1.78,4.44s.59,3.25,1.78,4.44c1.18,1.18,2.65,1.78,4.39,1.78s3.2-.59,4.39-1.78c1.18-1.18,1.77-2.66,1.77-4.44s-.59-3.25-1.77-4.44Z"/>
          <path class="cls-1" d="m337.08,23.11h6.11v1.97c.59-.85,1.39-1.53,2.39-2.02,1-.49,2.08-.74,3.23-.74,2.69,0,4.68,1,5.97,3.01,1.64-2,3.85-3.01,6.61-3.01,2.23,0,4,.71,5.3,2.14,1.3,1.43,1.95,3.36,1.95,5.79v16.02h-6.41v-14.45c0-2.33-1.02-3.5-3.06-3.5-1.41,0-2.45.59-3.11,1.77v16.17h-6.41v-14.45c0-2.33-1.02-3.5-3.06-3.5-.69,0-1.32.17-1.9.49-.58.33-.98.76-1.21,1.28v16.17h-6.41v-23.17Z"/>
        </g>
        <g>
          <path class="cls-1" d="m84.79,52.34h1.44v5.67l5.07-5.67h1.81l-5.22,5.7,5.33,5.83h-1.87l-5.12-5.67v5.67h-1.44v-11.54Z"/>
          <path class="cls-1" d="m96.52,52.34h1.44v7.49c0,.96.22,1.69.67,2.18s1.08.74,1.89.74,1.46-.25,1.9-.74c.44-.5.66-1.22.66-2.18v-7.49h1.44v7.62c0,1.35-.34,2.39-1.03,3.11-.69.72-1.67,1.09-2.97,1.09s-2.27-.36-2.96-1.09c-.69-.72-1.04-1.76-1.04-3.11v-7.62Z"/>
          <path class="cls-1" d="m114.19,52.34h1.44v11.54h-1.44v-11.54Z"/>
          <path class="cls-1" d="m120.23,52.34h1.44v11.54h-1.44v-11.54Z"/>
          <path class="cls-1" d="m126.26,52.34h3.29c1.19,0,2.11.26,2.74.77.64.51.95,1.24.95,2.17,0,.52-.12.98-.36,1.37-.24.39-.6.69-1.08.89.89.13,1.57.46,2.03.97.46.51.69,1.19.69,2.02,0,1.08-.36,1.91-1.09,2.48s-1.75.86-3.08.86h-4.11v-11.54Zm3.41,4.8c.66,0,1.17-.15,1.54-.45.37-.3.55-.72.55-1.25,0-1.17-.77-1.76-2.31-1.76h-1.76v3.46h1.97Zm.57,5.4c1.86,0,2.79-.69,2.79-2.07,0-.66-.23-1.16-.69-1.51s-1.12-.53-1.96-.53h-2.68v4.11h2.54Z"/>
          <path class="cls-1" d="m142.35,60.15c-.38.95-.76,1.7-1.15,2.25-.39.55-.83.95-1.3,1.19-.48.24-1.04.36-1.69.36-.31,0-.58-.03-.8-.08v-1.35c.13.03.32.05.57.05.66,0,1.2-.2,1.62-.61.42-.41.84-1.12,1.25-2.13l1.57-3.8c.38-.94.76-1.68,1.13-2.22.37-.55.78-.94,1.23-1.17s.96-.35,1.54-.35c.13,0,.26,0,.38.02.12.01.21.03.28.05v1.35c-.13-.02-.27-.03-.42-.03-.56,0-1.04.2-1.44.61-.4.41-.8,1.1-1.2,2.06l-1.56,3.81Z"/>
          <path class="cls-1" d="m150.05,61.24c-.52-.91-.78-1.95-.78-3.14s.26-2.23.78-3.14c.52-.91,1.23-1.62,2.15-2.14.91-.52,1.97-.78,3.16-.78s2.25.26,3.16.78c.91.52,1.63,1.23,2.15,2.14.52.91.78,1.95.78,3.14s-.26,2.23-.78,3.14c-.52.91-1.23,1.62-2.15,2.14-.91.52-1.97.78-3.16.78s-2.25-.26-3.16-.78c-.91-.52-1.63-1.23-2.15-2.14Zm9.32-.69c.39-.7.58-1.52.58-2.44s-.2-1.74-.58-2.44c-.39-.7-.93-1.25-1.62-1.64s-1.49-.59-2.39-.59-1.68.2-2.37.59-1.23.94-1.62,1.64c-.39.7-.58,1.52-.58,2.44s.19,1.74.58,2.44c.39.7.93,1.25,1.62,1.64.69.39,1.48.59,2.37.59s1.7-.2,2.39-.59c.69-.39,1.23-.94,1.62-1.64Z"/>
          <path class="cls-1" d="m170.89,61.24c-.52-.91-.78-1.95-.78-3.14s.26-2.23.78-3.14c.52-.91,1.23-1.62,2.15-2.14.91-.52,1.97-.78,3.16-.78s2.25.26,3.16.78c.91.52,1.63,1.23,2.15,2.14.52.91.78,1.95.78,3.14s-.26,2.23-.78,3.14c-.52.91-1.23,1.62-2.15,2.14-.91.52-1.97.78-3.16.78s-2.25-.26-3.16-.78c-.91-.52-1.63-1.23-2.15-2.14Zm9.32-.69c.39-.7.58-1.52.58-2.44s-.2-1.74-.58-2.44c-.39-.7-.93-1.25-1.62-1.64s-1.49-.59-2.39-.59-1.68.2-2.37.59-1.23.94-1.62,1.64c-.39.7-.58,1.52-.58,2.44s.19,1.74.58,2.44c.39.7.93,1.25,1.62,1.64.69.39,1.48.59,2.37.59s1.7-.2,2.39-.59c.69-.39,1.23-.94,1.62-1.64Z"/>
          <path class="cls-1" d="m186.33,52.16h.13l6.55,5.35v-5.17h1.44v11.54h-1.44v-4.61l-5.25-4.3v8.91h-1.44v-11.72Z"/>
          <path class="cls-1" d="m199.06,52.34h1.44v10.18h5.75v1.35h-7.19v-11.54Z"/>
          <path class="cls-1" d="m209.86,52.34h1.44v11.54h-1.44v-11.54Z"/>
          <path class="cls-1" d="m215.89,52.16h.13l6.55,5.35v-5.17h1.44v11.54h-1.44v-4.61l-5.25-4.3v8.91h-1.44v-11.72Z"/>
          <path class="cls-1" d="m228.61,52.34h5.92v1.35h-4.48v4.73h5.18v1.35h-5.18v2.74h6.19v1.35h-7.62v-11.54Z"/>
          <path class="cls-1" d="m249.71,52.14h.17l5.72,11.74h-1.62l-1.12-2.41h-6.12l-1.17,2.41h-1.59l5.73-11.74Zm2.51,8.01l-2.44-5.18-2.41,5.18h4.85Z"/>
          <path class="cls-1" d="m258.97,52.34h1.44v10.18h5.75v1.35h-7.19v-11.54Z"/>
          <path class="cls-1" d="m274.52,52.14h.17l5.72,11.74h-1.62l-1.12-2.41h-6.12l-1.17,2.41h-1.59l5.73-11.74Zm2.51,8.01l-2.44-5.18-2.41,5.18h4.85Z"/>
          <path class="cls-1" d="m288.53,52.14h.17l5.72,11.74h-1.62l-1.12-2.41h-6.12l-1.17,2.41h-1.59l5.73-11.74Zm2.51,8.01l-2.44-5.18-2.41,5.18h4.85Z"/>
          <path class="cls-1" d="m297.8,52.34h3.29c1.19,0,2.11.26,2.74.77.64.51.95,1.24.95,2.17,0,.52-.12.98-.36,1.37-.24.39-.6.69-1.08.89.89.13,1.57.46,2.03.97.46.51.69,1.19.69,2.02,0,1.08-.36,1.91-1.09,2.48s-1.75.86-3.08.86h-4.11v-11.54Zm3.41,4.8c.66,0,1.17-.15,1.54-.45.37-.3.55-.72.55-1.25,0-1.17-.77-1.76-2.31-1.76h-1.76v3.46h1.97Zm.57,5.4c1.86,0,2.79-.69,2.79-2.07,0-.66-.23-1.16-.69-1.51s-1.12-.53-1.96-.53h-2.68v4.11h2.54Z"/>
          <path class="cls-1" d="m309.93,52.34h1.44v5.67l5.07-5.67h1.81l-5.22,5.7,5.33,5.83h-1.87l-5.12-5.67v5.67h-1.44v-11.54Z"/>
          <path class="cls-1" d="m326.28,52.14h.17l5.72,11.74h-1.62l-1.12-2.41h-6.12l-1.17,2.41h-1.59l5.73-11.74Zm2.51,8.01l-2.44-5.18-2.41,5.18h4.85Z"/>
          <path class="cls-1" d="m339.66,60.15c-.38.95-.76,1.7-1.15,2.25-.39.55-.83.95-1.3,1.19-.48.24-1.04.36-1.69.36-.31,0-.58-.03-.8-.08v-1.35c.13.03.32.05.57.05.66,0,1.2-.2,1.62-.61.42-.41.84-1.12,1.25-2.13l1.57-3.8c.38-.94.76-1.68,1.13-2.22.37-.55.78-.94,1.23-1.17s.96-.35,1.54-.35c.13,0,.26,0,.38.02.12.01.21.03.28.05v1.35c-.13-.02-.27-.03-.42-.03-.56,0-1.04.2-1.44.61-.4.41-.8,1.1-1.2,2.06l-1.56,3.81Z"/>
          <path class="cls-1" d="m350.68,53.69h-3.53v-1.35h8.49v1.35h-3.53v10.18h-1.44v-10.18Z"/>
          <path class="cls-1" d="m362.75,52.14h.17l5.72,11.74h-1.62l-1.12-2.41h-6.12l-1.17,2.41h-1.59l5.73-11.74Zm2.51,8.01l-2.44-5.18-2.41,5.18h4.85Z"/>
        </g>
      </g>
    </g>
  </g>
</svg>