<?xml version="1.0" encoding="UTF-8"?>
<svg id="Layer_2" data-name="Layer 2" xmlns="http://www.w3.org/2000/svg" viewBox="0 0 134.65 118.35">
  <defs>
    <style>
      .cls-1 {
        fill: #022238;
      }

      .cls-2 {
        fill: #843667;
      }
    </style>
  </defs>
  <g id="Layer_1-2" data-name="Layer 1">
    <g>
      <g>
        <path class="cls-2" d="m100.87,23.83c-.41-.73-.85-1.44-1.31-2.12-4.59-.15-5.48,2.55-8.59,7.97,8.11,15.48,1.02,37.18-17.29,40.56-2.3,4.37-4.43,7.8-7.37,11.28,32.01,1.28,48.56-30.87,34.57-57.69Z"/>
        <path class="cls-2" d="m44.06,58.09c-8.94-15.72-1.23-38.38,17.77-41.29,2.13-4.4,4.15-7.93,6.47-11.15-.31-.01-.62-.01-.93-.01-30.68-.56-46.9,29.96-34.29,56.31,4.97,1.75,8.42.62,10.98-3.86Z"/>
        <path class="cls-2" d="m80.24,31c3.99-9.74,9.81-20.52,21.55-18.29V.67c-19.28-4.11-28.49,11.33-34.79,27.2,0,0-10.36,25.4-10.36,25.4-4.3,11.42-11.16,21.18-23.83,18.18v12.04c20.61,4.67,30.13-9.53,37.08-27.08,0,0,10.34-25.4,10.34-25.4Z"/>
      </g>
      <g>
        <g>
          <path class="cls-1" d="m1.09,106.27c-.73-1.27-1.09-2.73-1.09-4.37s.36-3.12,1.09-4.38c.73-1.26,1.74-2.26,3.03-2.98,1.29-.72,2.79-1.08,4.48-1.08s3.18.36,4.48,1.08c1.29.72,2.31,1.71,3.03,2.98s1.09,2.72,1.09,4.38-.36,3.1-1.09,4.37-1.74,2.27-3.03,2.99c-1.29.72-2.79,1.08-4.48,1.08s-3.18-.36-4.48-1.08c-1.29-.72-2.31-1.72-3.03-2.99Zm12.22-1.53c.46-.82.69-1.77.69-2.84s-.23-2.03-.69-2.85c-.46-.81-1.09-1.45-1.89-1.92-.81-.46-1.74-.7-2.81-.7s-1.99.23-2.8.7c-.81.46-1.45,1.1-1.91,1.92-.46.81-.69,1.76-.69,2.85s.23,2.01.69,2.84c.46.82,1.09,1.46,1.91,1.93.81.46,1.75.7,2.8.7s2.01-.23,2.81-.7c.81-.46,1.44-1.11,1.89-1.93Z"/>
          <path class="cls-1" d="m22.46,105.62c0,.57.13,1.02.4,1.32.26.31.64.46,1.12.46s.85-.15,1.12-.46c.26-.31.4-.75.4-1.32v-6.63h3.02v6.58c0,1.52-.39,2.69-1.17,3.51-.78.82-1.9,1.23-3.36,1.23s-2.58-.41-3.36-1.23c-.78-.82-1.17-1.99-1.17-3.51v-6.58h3.02v6.63Z"/>
          <path class="cls-1" d="m31.01,98.99h2.93v1.28c.57-.94,1.67-1.42,3.28-1.42h.12v3h-.19c-.79,0-1.46.11-2.01.33-.55.22-.92.52-1.1.91v6.84h-3.02v-10.93Z"/>
          <path class="cls-1" d="m43.85,99.34c.56-1.38,1.13-2.48,1.71-3.29.58-.81,1.22-1.4,1.93-1.76.71-.36,1.52-.53,2.45-.53.46,0,.84.04,1.12.12v2.91c-.06-.02-.14-.03-.24-.03-.1,0-.2-.01-.29-.01-.76,0-1.41.26-1.94.77-.53.51-1.06,1.39-1.57,2.63l-1.79,4.39c-.56,1.36-1.12,2.45-1.7,3.25-.57.81-1.21,1.38-1.91,1.73-.7.35-1.53.52-2.49.52-.26,0-.52-.02-.77-.05-.25-.03-.46-.07-.65-.12v-2.91c.22.06.49.09.81.09.79,0,1.46-.25,2-.76.54-.5,1.05-1.36,1.53-2.57l1.79-4.39Z"/>
          <path class="cls-1" d="m55.87,109.92h-3.02v-8.32h-1.51v-2.6h1.51v-2.3l2.84-1.46h.19v3.77h1.7v2.6h-1.7v8.32Z"/>
          <path class="cls-1" d="m64.49,110.29c-1.15,0-2.17-.25-3.07-.76-.9-.5-1.61-1.2-2.13-2.08-.52-.88-.78-1.88-.78-3s.26-2.13.78-3.01c.52-.88,1.23-1.57,2.13-2.07.9-.5,1.92-.76,3.07-.76s2.17.25,3.07.76c.9.5,1.61,1.19,2.13,2.07.52.88.78,1.88.78,3.01s-.26,2.12-.78,3c-.52.88-1.23,1.58-2.13,2.08-.9.5-1.92.76-3.07.76Zm2.07-7.93c-.56-.56-1.25-.84-2.07-.84s-1.51.28-2.07.84c-.56.56-.84,1.26-.84,2.09s.28,1.53.84,2.09c.56.56,1.25.84,2.07.84s1.51-.28,2.07-.84c.56-.56.84-1.26.84-2.09s-.28-1.53-.84-2.09Z"/>
          <path class="cls-1" d="m72.44,98.99h2.93v1.28c.57-.94,1.67-1.42,3.28-1.42h.12v3h-.19c-.79,0-1.46.11-2.01.33-.55.22-.92.52-1.1.91v6.84h-3.02v-10.93Z"/>
          <path class="cls-1" d="m86.62,110.29c-1.39,0-2.6-.24-3.63-.73s-1.81-1.18-2.36-2.08c-.55-.9-.83-1.97-.83-3.21,0-1.1.24-2.07.71-2.92.47-.84,1.12-1.51,1.95-2,.83-.49,1.78-.73,2.85-.73.96,0,1.82.22,2.58.65.76.43,1.36,1.03,1.79,1.79.43.76.65,1.62.65,2.58,0,.2,0,.43-.01.69,0,.26-.03.44-.06.55l-7.21,1.09c.51,1.1,1.72,1.65,3.63,1.65.45,0,.93-.04,1.44-.13.51-.08.95-.2,1.3-.34v2.67c-.25.12-.66.23-1.22.33-.57.09-1.1.14-1.59.14Zm-1.33-9c-.68,0-1.24.21-1.67.62-.43.41-.7.96-.79,1.66l4.46-.7c-.09-.48-.31-.86-.66-1.15s-.79-.43-1.34-.43Z"/>
          <path class="cls-1" d="m92.02,109.62c-.37-.37-.56-.83-.56-1.37s.19-1,.56-1.37c.37-.37.84-.56,1.39-.56s1.02.19,1.39.56c.37.37.56.83.56,1.37s-.19,1-.56,1.37c-.37.37-.84.56-1.39.56s-1.02-.19-1.39-.56Z"/>
          <path class="cls-1" d="m104.45,101.88c-.39-.09-.79-.14-1.21-.14-1.04,0-1.87.24-2.49.73-.62.49-.93,1.14-.93,1.94,0,.85.3,1.53.9,2.02.6.5,1.41.74,2.43.74.53,0,.98-.05,1.35-.16v2.88c-.2.06-.45.11-.74.14-.29.03-.58.05-.86.05-1.24,0-2.33-.24-3.27-.71-.94-.47-1.67-1.14-2.19-1.99-.52-.85-.78-1.84-.78-2.98s.26-2.09.79-2.93c.53-.84,1.26-1.49,2.2-1.95.94-.46,2.03-.7,3.29-.7.26,0,.53.02.8.05.27.03.51.07.71.12v2.88Z"/>
          <path class="cls-1" d="m111.82,110.29c-1.15,0-2.17-.25-3.07-.76-.9-.5-1.61-1.2-2.13-2.08-.52-.88-.78-1.88-.78-3s.26-2.13.78-3.01c.52-.88,1.23-1.57,2.13-2.07.9-.5,1.92-.76,3.07-.76s2.17.25,3.07.76c.9.5,1.61,1.19,2.13,2.07.52.88.78,1.88.78,3.01s-.26,2.12-.78,3c-.52.88-1.23,1.58-2.13,2.08-.9.5-1.92.76-3.07.76Zm2.07-7.93c-.56-.56-1.25-.84-2.07-.84s-1.51.28-2.07.84c-.56.56-.84,1.26-.84,2.09s.28,1.53.84,2.09c.56.56,1.25.84,2.07.84s1.51-.28,2.07-.84c.56-.56.84-1.26.84-2.09s-.28-1.53-.84-2.09Z"/>
          <path class="cls-1" d="m119.78,98.99h2.88v.93c.28-.4.65-.72,1.13-.95.47-.23.98-.35,1.52-.35,1.27,0,2.21.47,2.81,1.42.77-.95,1.81-1.42,3.12-1.42,1.05,0,1.89.34,2.5,1.01.61.67.92,1.59.92,2.73v7.56h-3.02v-6.81c0-1.1-.48-1.65-1.44-1.65-.67,0-1.15.28-1.46.84v7.63h-3.02v-6.81c0-1.1-.48-1.65-1.44-1.65-.33,0-.62.08-.9.23-.27.16-.46.36-.57.6v7.63h-3.02v-10.93Z"/>
        </g>
        <g>
          <path class="cls-1" d="m.81,112.77h.68v2.67l2.39-2.67h.85l-2.46,2.69,2.51,2.75h-.88l-2.41-2.67v2.67h-.68v-5.44Z"/>
          <path class="cls-1" d="m6.34,112.77h.68v3.53c0,.45.11.8.32,1.03s.51.35.89.35.69-.12.89-.35c.21-.23.31-.58.31-1.03v-3.53h.68v3.6c0,.64-.16,1.12-.48,1.47-.32.34-.79.51-1.4.51s-1.07-.17-1.4-.51c-.33-.34-.49-.83-.49-1.47v-3.6Z"/>
          <path class="cls-1" d="m14.68,112.77h.68v5.44h-.68v-5.44Z"/>
          <path class="cls-1" d="m17.52,112.77h.68v5.44h-.68v-5.44Z"/>
          <path class="cls-1" d="m20.37,112.77h1.55c.56,0,.99.12,1.29.36.3.24.45.58.45,1.02,0,.25-.06.46-.17.65-.11.18-.28.32-.51.42.42.06.74.22.96.46.22.24.33.56.33.95,0,.51-.17.9-.51,1.17s-.83.41-1.45.41h-1.94v-5.44Zm1.61,2.26c.31,0,.55-.07.73-.21.17-.14.26-.34.26-.59,0-.55-.36-.83-1.09-.83h-.83v1.63h.93Zm.27,2.55c.88,0,1.32-.33,1.32-.98,0-.31-.11-.55-.33-.71s-.53-.25-.93-.25h-1.26v1.94h1.2Z"/>
          <path class="cls-1" d="m27.95,116.46c-.18.45-.36.8-.54,1.06-.18.26-.39.45-.61.56-.23.11-.49.17-.8.17-.15,0-.27-.01-.38-.04v-.64c.06.02.15.02.27.02.31,0,.57-.1.76-.29.2-.19.4-.53.59-1.01l.74-1.79c.18-.44.36-.79.53-1.05.18-.26.37-.44.58-.55s.45-.17.73-.17c.06,0,.12,0,.18,0,.06,0,.1.01.13.02v.64c-.06-.01-.13-.02-.2-.02-.26,0-.49.1-.68.29-.19.19-.38.52-.57.97l-.73,1.8Z"/>
          <path class="cls-1" d="m31.58,116.97c-.24-.43-.37-.92-.37-1.48s.12-1.05.37-1.48c.24-.43.58-.76,1.01-1.01.43-.24.93-.37,1.49-.37s1.06.12,1.49.37c.43.24.77.58,1.01,1.01.24.43.37.92.37,1.48s-.12,1.05-.37,1.48c-.24.43-.58.76-1.01,1.01-.43.24-.93.37-1.49.37s-1.06-.12-1.49-.37c-.43-.24-.77-.58-1.01-1.01Zm4.4-.33c.18-.33.28-.71.28-1.15s-.09-.82-.28-1.15c-.18-.33-.44-.59-.76-.77s-.7-.28-1.13-.28-.79.09-1.12.28-.58.44-.76.77c-.18.33-.28.71-.28,1.15s.09.82.28,1.15c.18.33.44.59.76.77.33.18.7.28,1.12.28s.8-.09,1.13-.28c.33-.18.58-.44.76-.77Z"/>
          <path class="cls-1" d="m41.41,116.97c-.24-.43-.37-.92-.37-1.48s.12-1.05.37-1.48c.24-.43.58-.76,1.01-1.01.43-.24.93-.37,1.49-.37s1.06.12,1.49.37c.43.24.77.58,1.01,1.01.24.43.37.92.37,1.48s-.12,1.05-.37,1.48c-.24.43-.58.76-1.01,1.01-.43.24-.93.37-1.49.37s-1.06-.12-1.49-.37c-.43-.24-.77-.58-1.01-1.01Zm4.4-.33c.18-.33.28-.71.28-1.15s-.09-.82-.28-1.15c-.18-.33-.44-.59-.76-.77s-.7-.28-1.13-.28-.79.09-1.12.28-.58.44-.76.77c-.18.33-.28.71-.28,1.15s.09.82.28,1.15c.18.33.44.59.76.77.33.18.7.28,1.12.28s.8-.09,1.13-.28c.33-.18.58-.44.76-.77Z"/>
          <path class="cls-1" d="m48.69,112.69h.06l3.09,2.52v-2.44h.68v5.44h-.68v-2.18l-2.48-2.03v4.2h-.68v-5.53Z"/>
          <path class="cls-1" d="m54.69,112.77h.68v4.8h2.71v.64h-3.39v-5.44Z"/>
          <path class="cls-1" d="m59.78,112.77h.68v5.44h-.68v-5.44Z"/>
          <path class="cls-1" d="m62.63,112.69h.06l3.09,2.52v-2.44h.68v5.44h-.68v-2.18l-2.48-2.03v4.2h-.68v-5.53Z"/>
          <path class="cls-1" d="m68.63,112.77h2.79v.64h-2.11v2.23h2.44v.64h-2.44v1.29h2.92v.64h-3.59v-5.44Z"/>
          <path class="cls-1" d="m78.58,112.68h.08l2.7,5.53h-.76l-.53-1.14h-2.89l-.55,1.14h-.75l2.7-5.53Zm1.18,3.78l-1.15-2.44-1.14,2.44h2.29Z"/>
          <path class="cls-1" d="m82.95,112.77h.68v4.8h2.71v.64h-3.39v-5.44Z"/>
          <path class="cls-1" d="m90.28,112.68h.08l2.7,5.53h-.76l-.53-1.14h-2.89l-.55,1.14h-.75l2.7-5.53Zm1.18,3.78l-1.15-2.44-1.14,2.44h2.29Z"/>
          <path class="cls-1" d="m96.88,112.68h.08l2.7,5.53h-.76l-.53-1.14h-2.89l-.55,1.14h-.75l2.7-5.53Zm1.18,3.78l-1.15-2.44-1.14,2.44h2.29Z"/>
          <path class="cls-1" d="m101.25,112.77h1.55c.56,0,.99.12,1.29.36.3.24.45.58.45,1.02,0,.25-.06.46-.17.65-.11.18-.28.32-.51.42.42.06.74.22.96.46.22.24.33.56.33.95,0,.51-.17.9-.51,1.17s-.83.41-1.45.41h-1.94v-5.44Zm1.61,2.26c.31,0,.55-.07.73-.21.17-.14.26-.34.26-.59,0-.55-.36-.83-1.09-.83h-.83v1.63h.93Zm.27,2.55c.88,0,1.32-.33,1.32-.98,0-.31-.11-.55-.33-.71s-.53-.25-.93-.25h-1.26v1.94h1.2Z"/>
          <path class="cls-1" d="m106.98,112.77h.68v2.67l2.39-2.67h.85l-2.46,2.69,2.51,2.75h-.88l-2.41-2.67v2.67h-.68v-5.44Z"/>
          <path class="cls-1" d="m114.69,112.68h.08l2.7,5.53h-.76l-.53-1.14h-2.89l-.55,1.14h-.75l2.7-5.53Zm1.18,3.78l-1.15-2.44-1.14,2.44h2.29Z"/>
          <path class="cls-1" d="m120.99,116.46c-.18.45-.36.8-.54,1.06-.18.26-.39.45-.61.56-.23.11-.49.17-.8.17-.15,0-.27-.01-.38-.04v-.64c.06.02.15.02.27.02.31,0,.57-.1.76-.29.2-.19.4-.53.59-1.01l.74-1.79c.18-.44.36-.79.53-1.05.18-.26.37-.44.58-.55s.45-.17.73-.17c.06,0,.12,0,.18,0,.06,0,.1.01.13.02v.64c-.06-.01-.13-.02-.2-.02-.26,0-.49.1-.68.29-.19.19-.38.52-.57.97l-.73,1.8Z"/>
          <path class="cls-1" d="m126.19,113.41h-1.66v-.64h4v.64h-1.66v4.8h-.68v-4.8Z"/>
          <path class="cls-1" d="m131.88,112.68h.08l2.7,5.53h-.76l-.53-1.14h-2.89l-.55,1.14h-.75l2.7-5.53Zm1.18,3.78l-1.15-2.44-1.14,2.44h2.29Z"/>
        </g>
      </g>
    </g>
  </g>
</svg>